<svg xmlns="http://www.w3.org/2000/svg" viewBox="0 0 400 400" style="background:#000"><g stroke="#fff" stroke-width="0.5" opacity="0.05"><line x1="0" y1="50" x2="400" y2="50"/><line x1="0" y1="100" x2="400" y2="100"/><line x1="0" y1="150" x2="400" y2="150"/><line x1="0" y1="200" x2="400" y2="200"/><line x1="0" y1="250" x2="400" y2="250"/><line x1="0" y1="300" x2="400" y2="300"/><line x1="0" y1="350" x2="400" y2="350"/><line x1="50" y1="0" x2="50" y2="400"/><line x1="100" y1="0" x2="100" y2="400"/><line x1="150" y1="0" x2="150" y2="400"/><line x1="200" y1="0" x2="200" y2="400"/><line x1="250" y1="0" x2="250" y2="400"/><line x1="300" y1="0" x2="300" y2="400"/><line x1="350" y1="0" x2="350" y2="400"/></g><g stroke="#fff" stroke-width="1" fill="none" opacity="0.45"><path d="M10,30 L10,10 L30,10"/><path d="M370,10 L390,10 L390,30"/><path d="M390,370 L390,390 L370,390"/><path d="M30,390 L10,390 L10,370"/></g><line x1="20" y1="300" x2="380" y2="300" stroke="#fff" stroke-width="1" opacity="0.6"/><g stroke="#fff" stroke-width="0.5" opacity="0.5"><line x1="110" y1="300" x2="110" y2="307"/><line x1="160" y1="300" x2="160" y2="307"/><line x1="210" y1="300" x2="210" y2="307"/><line x1="260" y1="300" x2="260" y2="307"/><line x1="310" y1="300" x2="310" y2="307"/></g><path d="M70,255 Q95,300 70,345" fill="none" stroke="#fff" stroke-width="1.5"/><line x1="70" y1="255" x2="70" y2="345" stroke="#fff" stroke-width="0.7" opacity="0.7"/><circle cx="70" cy="300" r="2" fill="#fff"/><path d="M70,300 Q191,20 313,300" fill="none" stroke="#fff" stroke-width="1" stroke-dasharray="3,3" opacity="0.55"/><g transform="translate(191,160)"><line x1="-16" y1="0" x2="14" y2="0" stroke="#fff" stroke-width="1.5"/><polygon points="14,-4 22,0 14,4" fill="#fff"/><path d="M-16,0 L-22,-5 M-16,0 L-22,5 M-12,0 L-18,-5 M-12,0 L-18,5" stroke="hsl(99,82%,62%)" stroke-width="1.5" fill="none"/></g><g fill="none" stroke="#fff" opacity="0.7"><line x1="313" y1="300" x2="313" y2="255" stroke-width="0.7"/><circle cx="313" cy="252" r="12" stroke-width="1"/><circle cx="313" cy="252" r="7" stroke-width="0.8"/><circle cx="313" cy="252" r="2" fill="#fff" stroke="none"/></g><g stroke="#fff" stroke-width="0.6" opacity="0.7" fill="none"><line x1="70" y1="300" x2="120" y2="300" stroke-dasharray="1,2"/><path d="M 110,300 A 40,40 0 0,0 96,272" stroke-dasharray="1,2"/></g><g stroke="#fff" stroke-width="0.5" opacity="0.5"><line x1="200" y1="150" x2="200" y2="140"/><line x1="195" y1="145" x2="205" y2="145"/></g><circle cx="120" cy="252" r="1.5" fill="none" stroke="#fff" stroke-width="0.5" opacity="0.6"/><g font-family="ui-monospace,SFMono-Regular,Menlo,monospace" font-size="9" fill="#fff" opacity="0.55"><text x="20" y="375">QUIVER // 0x4794DC</text><text x="380" y="375" text-anchor="end">&#952;=50&#176;   45lb   92m</text></g></svg>